<svg width="15" height="16" viewBox="0 0 15 16" fill="none" xmlns="http://www.w3.org/2000/svg">
<g id="ar_stickers">
<mask id="mask0_496_386" style="mask-type:alpha" maskUnits="userSpaceOnUse" x="0" y="0" width="15" height="16">
<rect id="Bounding box" y="0.5" width="15" height="15" fill="#D9D9D9"/>
</mask>
<g mask="url(#mask0_496_386)">
<path id="ar_stickers_2" d="M7.5 14.875C5.94792 14.875 4.6224 14.6536 3.52344 14.2109C2.42448 13.7682 1.875 13.1562 1.875 12.375C1.875 12.0417 1.97917 11.7422 2.1875 11.4766C2.39583 11.2109 2.6875 10.974 3.0625 10.7656L4.07812 11.6719C3.82812 11.7552 3.60677 11.862 3.41406 11.9922C3.22135 12.1224 3.125 12.25 3.125 12.375C3.125 12.6458 3.54688 12.9219 4.39062 13.2031C5.23438 13.4844 6.27083 13.625 7.5 13.625C8.72917 13.625 9.76562 13.4844 10.6094 13.2031C11.4531 12.9219 11.875 12.6458 11.875 12.375C11.875 12.25 11.7786 12.1224 11.5859 11.9922C11.3932 11.862 11.1719 11.7552 10.9219 11.6719L11.9375 10.7656C12.3125 10.974 12.6042 11.2109 12.8125 11.4766C13.0208 11.7422 13.125 12.0417 13.125 12.375C13.125 13.1562 12.5755 13.7682 11.4766 14.2109C10.3776 14.6536 9.05208 14.875 7.5 14.875ZM7.5 12.375C7.27083 12.375 7.04948 12.3359 6.83594 12.2578C6.6224 12.1797 6.42708 12.0625 6.25 11.9062L2.3125 8.42188C2.17708 8.30729 2.07031 8.16667 1.99219 8C1.91406 7.83333 1.875 7.66146 1.875 7.48438V6.23438C1.875 6.05729 1.90885 5.88542 1.97656 5.71875C2.04427 5.55208 2.14583 5.41146 2.28125 5.29688L6.21875 1.625C6.39583 1.45833 6.59375 1.33333 6.8125 1.25C7.03125 1.16667 7.26042 1.125 7.5 1.125C7.73958 1.125 7.96875 1.16667 8.1875 1.25C8.40625 1.33333 8.60417 1.45833 8.78125 1.625L12.7188 5.29688C12.8542 5.41146 12.9557 5.55208 13.0234 5.71875C13.0911 5.88542 13.125 6.05729 13.125 6.23438V7.48438C13.125 7.66146 13.0859 7.83333 13.0078 8C12.9297 8.16667 12.8229 8.30729 12.6875 8.42188L8.75 11.9062C8.57292 12.0625 8.3776 12.1797 8.16406 12.2578C7.95052 12.3359 7.72917 12.375 7.5 12.375ZM7.4375 9.4375C7.58333 9.4375 7.72135 9.41406 7.85156 9.36719C7.98177 9.32031 8.10417 9.24479 8.21875 9.14062L11.6875 6.0625L7.9375 2.53125C7.86458 2.47917 7.79167 2.4401 7.71875 2.41406C7.64583 2.38802 7.56771 2.375 7.48438 2.375C7.40104 2.375 7.32292 2.38802 7.25 2.41406C7.17708 2.4401 7.11458 2.47917 7.0625 2.53125L3.25 6.125L6.65625 9.14062C6.77083 9.24479 6.89323 9.32031 7.02344 9.36719C7.15365 9.41406 7.29167 9.4375 7.4375 9.4375ZM5.625 6.90625C5.84375 6.90625 6.02865 6.83073 6.17969 6.67969C6.33073 6.52865 6.40625 6.34375 6.40625 6.125C6.40625 5.90625 6.33073 5.72135 6.17969 5.57031C6.02865 5.41927 5.84375 5.34375 5.625 5.34375C5.40625 5.34375 5.22135 5.41927 5.07031 5.57031C4.91927 5.72135 4.84375 5.90625 4.84375 6.125C4.84375 6.34375 4.91927 6.52865 5.07031 6.67969C5.22135 6.83073 5.40625 6.90625 5.625 6.90625ZM6.40625 7.75C6.85417 7.96875 7.32552 8.03906 7.82031 7.96094C8.3151 7.88281 8.75 7.67708 9.125 7.34375C9.47917 7.04167 9.71094 6.66146 9.82031 6.20312C9.92969 5.74479 9.875 5.3125 9.65625 4.90625L6.40625 7.75ZM7.5 5.03125C7.71875 5.03125 7.90365 4.95573 8.05469 4.80469C8.20573 4.65365 8.28125 4.46875 8.28125 4.25C8.28125 4.03125 8.20573 3.84635 8.05469 3.69531C7.90365 3.54427 7.71875 3.46875 7.5 3.46875C7.28125 3.46875 7.09635 3.54427 6.94531 3.69531C6.79427 3.84635 6.71875 4.03125 6.71875 4.25C6.71875 4.46875 6.79427 4.65365 6.94531 4.80469C7.09635 4.95573 7.28125 5.03125 7.5 5.03125Z" fill="#2D3748"/>
</g>
</g>
</svg>
