<svg width="24" height="24" viewBox="0 0 24 24" fill="none" xmlns="http://www.w3.org/2000/svg">
<g id="ar_stickers">
<mask id="mask0_508_655" style="mask-type:alpha" maskUnits="userSpaceOnUse" x="0" y="0" width="24" height="24">
<rect id="Bounding box" width="24" height="24" fill="#D9D9D9"/>
</mask>
<g mask="url(#mask0_508_655)">
<path id="ar_stickers_2" d="M12 23C9.51667 23 7.39583 22.6458 5.6375 21.9375C3.87917 21.2292 3 20.25 3 19C3 18.4667 3.16667 17.9875 3.5 17.5625C3.83333 17.1375 4.3 16.7583 4.9 16.425L6.525 17.875C6.125 18.0083 5.77083 18.1792 5.4625 18.3875C5.15417 18.5958 5 18.8 5 19C5 19.4333 5.675 19.875 7.025 20.325C8.375 20.775 10.0333 21 12 21C13.9667 21 15.625 20.775 16.975 20.325C18.325 19.875 19 19.4333 19 19C19 18.8 18.8458 18.5958 18.5375 18.3875C18.2292 18.1792 17.875 18.0083 17.475 17.875L19.1 16.425C19.7 16.7583 20.1667 17.1375 20.5 17.5625C20.8333 17.9875 21 18.4667 21 19C21 20.25 20.1208 21.2292 18.3625 21.9375C16.6042 22.6458 14.4833 23 12 23ZM12 19C11.6333 19 11.2792 18.9375 10.9375 18.8125C10.5958 18.6875 10.2833 18.5 10 18.25L3.7 12.675C3.48333 12.4917 3.3125 12.2667 3.1875 12C3.0625 11.7333 3 11.4583 3 11.175V9.175C3 8.89167 3.05417 8.61667 3.1625 8.35C3.27083 8.08333 3.43333 7.85833 3.65 7.675L9.95 1.8C10.2333 1.53333 10.55 1.33333 10.9 1.2C11.25 1.06667 11.6167 1 12 1C12.3833 1 12.75 1.06667 13.1 1.2C13.45 1.33333 13.7667 1.53333 14.05 1.8L20.35 7.675C20.5667 7.85833 20.7292 8.08333 20.8375 8.35C20.9458 8.61667 21 8.89167 21 9.175V11.175C21 11.4583 20.9375 11.7333 20.8125 12C20.6875 12.2667 20.5167 12.4917 20.3 12.675L14 18.25C13.7167 18.5 13.4042 18.6875 13.0625 18.8125C12.7208 18.9375 12.3667 19 12 19ZM11.9 14.3C12.1333 14.3 12.3542 14.2625 12.5625 14.1875C12.7708 14.1125 12.9667 13.9917 13.15 13.825L18.7 8.9L12.7 3.25C12.5833 3.16667 12.4667 3.10417 12.35 3.0625C12.2333 3.02083 12.1083 3 11.975 3C11.8417 3 11.7167 3.02083 11.6 3.0625C11.4833 3.10417 11.3833 3.16667 11.3 3.25L5.2 9L10.65 13.825C10.8333 13.9917 11.0292 14.1125 11.2375 14.1875C11.4458 14.2625 11.6667 14.3 11.9 14.3ZM9 10.25C9.35 10.25 9.64583 10.1292 9.8875 9.8875C10.1292 9.64583 10.25 9.35 10.25 9C10.25 8.65 10.1292 8.35417 9.8875 8.1125C9.64583 7.87083 9.35 7.75 9 7.75C8.65 7.75 8.35417 7.87083 8.1125 8.1125C7.87083 8.35417 7.75 8.65 7.75 9C7.75 9.35 7.87083 9.64583 8.1125 9.8875C8.35417 10.1292 8.65 10.25 9 10.25ZM10.25 11.6C10.9667 11.95 11.7208 12.0625 12.5125 11.9375C13.3042 11.8125 14 11.4833 14.6 10.95C15.1667 10.4667 15.5375 9.85833 15.7125 9.125C15.8875 8.39167 15.8 7.7 15.45 7.05L10.25 11.6ZM12 7.25C12.35 7.25 12.6458 7.12917 12.8875 6.8875C13.1292 6.64583 13.25 6.35 13.25 6C13.25 5.65 13.1292 5.35417 12.8875 5.1125C12.6458 4.87083 12.35 4.75 12 4.75C11.65 4.75 11.3542 4.87083 11.1125 5.1125C10.8708 5.35417 10.75 5.65 10.75 6C10.75 6.35 10.8708 6.64583 11.1125 6.8875C11.3542 7.12917 11.65 7.25 12 7.25Z" fill="white"/>
</g>
</g>
</svg>
