<svg width="15" height="16" viewBox="0 0 15 16" fill="none" xmlns="http://www.w3.org/2000/svg">
<g id="nest_cam_iq">
<mask id="mask0_496_385" style="mask-type:alpha" maskUnits="userSpaceOnUse" x="0" y="0" width="15" height="16">
<rect id="Bounding box" y="0.5" width="15" height="15" fill="#D9D9D9"/>
</mask>
<g mask="url(#mask0_496_385)">
<path id="nest_cam_iq_2" d="M5.54078 13.7871C5.28526 13.7871 5.06516 13.6947 4.88047 13.5101C4.69578 13.3254 4.60344 13.1052 4.60344 12.8496H7.03125V10.2968C6 10.1726 5.14323 9.72871 4.46094 8.96506C3.77865 8.20141 3.4375 7.30079 3.4375 6.26318C3.4375 5.13141 3.83156 4.17141 4.61969 3.38318C5.40771 2.59485 6.36745 2.20068 7.49891 2.20068C8.63026 2.20068 9.59036 2.59485 10.3792 3.38318C11.1681 4.17141 11.5625 5.13141 11.5625 6.26318C11.5625 7.30079 11.2214 8.20141 10.5391 8.96506C9.85677 9.72871 9 10.1726 7.96875 10.2968V12.8496H10.3966C10.3966 13.1052 10.3042 13.3254 10.1195 13.5101C9.93484 13.6947 9.71474 13.7871 9.45922 13.7871H5.54078ZM7.5 9.38818C8.36458 9.38818 9.10156 9.0835 9.71094 8.47412C10.3203 7.86475 10.625 7.12777 10.625 6.26318C10.625 5.3986 10.3203 4.66162 9.71094 4.05225C9.10156 3.44287 8.36458 3.13818 7.5 3.13818C6.63542 3.13818 5.89844 3.44287 5.28906 4.05225C4.67969 4.66162 4.375 5.3986 4.375 6.26318C4.375 7.12777 4.67969 7.86475 5.28906 8.47412C5.89844 9.0835 6.63542 9.38818 7.5 9.38818ZM7.5 7.33287C7.20583 7.33287 6.95401 7.22813 6.74453 7.01865C6.53505 6.80917 6.43031 6.55735 6.43031 6.26318C6.43031 5.96902 6.53505 5.71719 6.74453 5.50772C6.95401 5.29824 7.20583 5.1935 7.5 5.1935C7.79417 5.1935 8.04599 5.29824 8.25547 5.50772C8.46495 5.71719 8.56969 5.96902 8.56969 6.26318C8.56969 6.55735 8.46495 6.80917 8.25547 7.01865C8.04599 7.22813 7.79417 7.33287 7.5 7.33287Z" fill="#1C1B1F"/>
</g>
</g>
</svg>
