<svg width="14" height="20" viewBox="0 0 14 20" fill="none" xmlns="http://www.w3.org/2000/svg">
<path id="nest_cam_iq" d="M3.66665 20C3.20832 20 2.81596 19.8368 2.48958 19.5104C2.16319 19.184 2 18.7917 2 18.3334H6.16667V13.9583C4.40001 13.7194 2.93056 12.9431 1.75833 11.6292C0.586108 10.3153 0 8.77222 0 7C0 5.05 0.679167 3.39583 2.0375 2.0375C3.39583 0.679167 5.05 0 7 0C8.95 0 10.6042 0.679167 11.9625 2.0375C13.3208 3.39583 14 5.05 14 7C14 8.77222 13.4139 10.3153 12.2417 11.6292C11.0694 12.9431 9.59999 13.7194 7.83332 13.9583V18.3334H12C12 18.7917 11.8368 19.184 11.5104 19.5104C11.184 19.8368 10.7917 20 10.3333 20H3.66665ZM7 12.3334C8.48333 12.3334 9.74306 11.8153 10.7792 10.7792C11.8153 9.74306 12.3333 8.48333 12.3333 7C12.3333 5.51667 11.8153 4.25694 10.7792 3.22083C9.74306 2.18471 8.48333 1.66665 7 1.66665C5.51667 1.66665 4.25694 2.18471 3.22082 3.22083C2.18471 4.25694 1.66665 5.51667 1.66665 7C1.66665 8.48333 2.18471 9.74306 3.22082 10.7792C4.25694 11.8153 5.51667 12.3334 7 12.3334ZM7 9.33335C6.35 9.33335 5.79861 9.10696 5.34583 8.65417C4.89304 8.20139 4.66665 7.65 4.66665 7C4.66665 6.35 4.89304 5.79861 5.34583 5.34583C5.79861 4.89304 6.35 4.66665 7 4.66665C7.65 4.66665 8.20139 4.89304 8.65417 5.34583C9.10696 5.79861 9.33335 6.35 9.33335 7C9.33335 7.65 9.10696 8.20139 8.65417 8.65417C8.20139 9.10696 7.65 9.33335 7 9.33335Z" fill="#2D3748"/>
</svg>
