<svg width="20" height="17" viewBox="0 0 20 17" fill="none" xmlns="http://www.w3.org/2000/svg">
<path id="folder" d="M2 16.1693C1.45 16.1693 0.979167 15.9714 0.5875 15.5756C0.195833 15.1797 0 14.7039 0 14.1481V2.02116C0 1.46534 0.195833 0.989526 0.5875 0.593715C0.979167 0.197905 1.45 0 2 0H8L10 2.02116H18C18.55 2.02116 19.0208 2.21906 19.4125 2.61487C19.8042 3.01068 20 3.4865 20 4.04232V14.1481C20 14.7039 19.8042 15.1797 19.4125 15.5756C19.0208 15.9714 18.55 16.1693 18 16.1693H2ZM2 14.1481H18V4.04232H9.175L7.175 2.02116H2V14.1481Z" fill="#2D3748"/>
</svg>
