<svg width="25" height="24" viewBox="0 0 25 24" fill="none" xmlns="http://www.w3.org/2000/svg">
<g id="nest_cam_iq">
<mask id="mask0_509_948" style="mask-type:alpha" maskUnits="userSpaceOnUse" x="0" y="0" width="25" height="24">
<rect id="Bounding box" x="0.5" width="24" height="24" fill="#D9D9D9"/>
</mask>
<g mask="url(#mask0_509_948)">
<path id="nest_cam_iq_2" d="M9.36525 21.2594C8.95642 21.2594 8.60425 21.1117 8.30875 20.8162C8.01325 20.5207 7.8655 20.1684 7.8655 19.7594H11.75V15.6749C10.1 15.4763 8.72917 14.766 7.6375 13.5442C6.54583 12.3224 6 10.8814 6 9.22119C6 7.41036 6.6305 5.87436 7.8915 4.61319C9.15233 3.35186 10.6879 2.72119 12.4983 2.72119C14.3084 2.72119 15.8446 3.35186 17.1068 4.61319C18.3689 5.87436 19 7.41036 19 9.22119C19 10.8814 18.4542 12.3224 17.3625 13.5442C16.2708 14.766 14.9 15.4763 13.25 15.6749V19.7594H17.1345C17.1345 20.1684 16.9868 20.5207 16.6913 20.8162C16.3958 21.1117 16.0436 21.2594 15.6348 21.2594H9.36525ZM12.5 14.2212C13.8833 14.2212 15.0625 13.7337 16.0375 12.7587C17.0125 11.7837 17.5 10.6045 17.5 9.22119C17.5 7.83786 17.0125 6.65869 16.0375 5.68369C15.0625 4.70869 13.8833 4.22119 12.5 4.22119C11.1167 4.22119 9.9375 4.70869 8.9625 5.68369C7.9875 6.65869 7.5 7.83786 7.5 9.22119C7.5 10.6045 7.9875 11.7837 8.9625 12.7587C9.9375 13.7337 11.1167 14.2212 12.5 14.2212ZM12.5 10.9327C12.0293 10.9327 11.6264 10.7651 11.2912 10.4299C10.9561 10.0948 10.7885 9.69186 10.7885 9.22119C10.7885 8.75053 10.9561 8.34761 11.2912 8.01244C11.6264 7.67728 12.0293 7.50969 12.5 7.50969C12.9707 7.50969 13.3736 7.67728 13.7087 8.01244C14.0439 8.34761 14.2115 8.75053 14.2115 9.22119C14.2115 9.69186 14.0439 10.0948 13.7087 10.4299C13.3736 10.7651 12.9707 10.9327 12.5 10.9327Z" fill="white"/>
</g>
</g>
</svg>
