<svg width="18" height="18" viewBox="0 0 18 18" fill="none" xmlns="http://www.w3.org/2000/svg">
<g id="border_color">
<mask id="mask0_460_3003" style="mask-type:alpha" maskUnits="userSpaceOnUse" x="0" y="0" width="18" height="18">
<rect id="Bounding box" width="18" height="18" fill="#D9D9D9"/>
</mask>
<g mask="url(#mask0_460_3003)">
<path id="border_color_2" d="M1.5 18V15H16.5V18H1.5ZM4.5 12H5.55L11.4 6.16875L10.3313 5.1L4.5 10.95V12ZM3 13.5V10.3125L11.4 1.93125C11.5375 1.79375 11.6969 1.6875 11.8781 1.6125C12.0594 1.5375 12.25 1.5 12.45 1.5C12.65 1.5 12.8438 1.5375 13.0312 1.6125C13.2188 1.6875 13.3875 1.8 13.5375 1.95L14.5688 3C14.7188 3.1375 14.8281 3.3 14.8969 3.4875C14.9656 3.675 15 3.86875 15 4.06875C15 4.25625 14.9656 4.44062 14.8969 4.62187C14.8281 4.80312 14.7188 4.96875 14.5688 5.11875L6.1875 13.5H3Z" fill="white"/>
</g>
</g>
</svg>
