<svg width="18" height="18" viewBox="0 0 18 18" fill="none" xmlns="http://www.w3.org/2000/svg">
<g id="rule_settings">
<mask id="mask0_460_2810" style="mask-type:alpha" maskUnits="userSpaceOnUse" x="0" y="0" width="18" height="18">
<rect id="Bounding box" width="18" height="18" fill="#D9D9D9"/>
</mask>
<g mask="url(#mask0_460_2810)">
<path id="rule_settings_2" d="M2.25 15V13.5H4.3125L4.0125 13.2375C3.3625 12.6625 2.90625 12.0063 2.64375 11.2688C2.38125 10.5313 2.25 9.7875 2.25 9.0375C2.25 7.65 2.66563 6.41563 3.49688 5.33437C4.32812 4.25312 5.4125 3.5375 6.75 3.1875V4.7625C5.85 5.0875 5.125 5.64062 4.575 6.42188C4.025 7.20312 3.75 8.075 3.75 9.0375C3.75 9.6 3.85625 10.1469 4.06875 10.6781C4.28125 11.2094 4.6125 11.7 5.0625 12.15L5.25 12.3375V10.5H6.75V15H2.25ZM15.6938 8.25H14.175C14.1125 7.8125 13.9781 7.39375 13.7719 6.99375C13.5656 6.59375 13.2875 6.2125 12.9375 5.85L12.75 5.6625V7.5H11.25V3H15.75V4.5H13.6875L13.9875 4.7625C14.5 5.2875 14.8938 5.84375 15.1688 6.43125C15.4438 7.01875 15.6188 7.625 15.6938 8.25ZM12.75 17.25L12.525 16.125C12.375 16.0625 12.2344 15.9969 12.1031 15.9281C11.9719 15.8594 11.8375 15.775 11.7 15.675L10.6125 16.0125L9.8625 14.7375L10.725 13.9875C10.7 13.8125 10.6875 13.65 10.6875 13.5C10.6875 13.35 10.7 13.1875 10.725 13.0125L9.8625 12.2625L10.6125 10.9875L11.7 11.325C11.8375 11.225 11.9719 11.1406 12.1031 11.0719C12.2344 11.0031 12.375 10.9375 12.525 10.875L12.75 9.75H14.25L14.475 10.875C14.625 10.9375 14.7656 11.0063 14.8969 11.0813C15.0281 11.1562 15.1625 11.25 15.3 11.3625L16.3875 10.9875L17.1375 12.3L16.275 13.05C16.3 13.2 16.3125 13.3563 16.3125 13.5188C16.3125 13.6813 16.3 13.8375 16.275 13.9875L17.1375 14.7375L16.3875 16.0125L15.3 15.675C15.1625 15.775 15.0281 15.8594 14.8969 15.9281C14.7656 15.9969 14.625 16.0625 14.475 16.125L14.25 17.25H12.75ZM13.5 15C13.9125 15 14.2656 14.8531 14.5594 14.5594C14.8531 14.2656 15 13.9125 15 13.5C15 13.0875 14.8531 12.7344 14.5594 12.4406C14.2656 12.1469 13.9125 12 13.5 12C13.0875 12 12.7344 12.1469 12.4406 12.4406C12.1469 12.7344 12 13.0875 12 13.5C12 13.9125 12.1469 14.2656 12.4406 14.5594C12.7344 14.8531 13.0875 15 13.5 15Z" fill="#1C1B1F"/>
</g>
</g>
</svg>
