<svg width="40" height="40" viewBox="0 0 40 40" fill="none" xmlns="http://www.w3.org/2000/svg">
<g id="group">
<mask id="mask0_460_2774" style="mask-type:alpha" maskUnits="userSpaceOnUse" x="0" y="0" width="40" height="40">
<rect id="Bounding box" width="40" height="40" fill="#D9D9D9"/>
</mask>
<g mask="url(#mask0_460_2774)">
<path id="group_2" d="M1.61133 33.3342V29.1675C1.61133 28.2046 1.85901 27.3273 2.35437 26.5356C2.84973 25.7439 3.52797 25.149 4.38908 24.7509C6.31502 23.8712 8.11595 23.2301 9.79187 22.8273C11.4678 22.4245 13.1854 22.2231 14.9447 22.2231C16.7039 22.2231 18.4169 22.4245 20.0835 22.8273C21.7502 23.2301 23.5465 23.8712 25.4724 24.7509C26.3335 25.149 27.0164 25.7439 27.521 26.5356C28.0257 27.3273 28.278 28.2046 28.278 29.1675V33.3342H1.61133ZM31.0557 33.3342V29.0564C31.0557 27.4824 30.646 26.1328 29.8266 25.0078C29.0071 23.8828 27.9076 22.9546 26.528 22.2231C28.278 22.4268 29.9261 22.7393 31.4724 23.1606C33.0187 23.5819 34.3243 24.0749 35.3891 24.6398C36.3335 25.1768 37.0696 25.818 37.5974 26.5634C38.1252 27.3087 38.3891 28.1398 38.3891 29.0564V33.3342H31.0557ZM14.9447 19.9731C13.1113 19.9731 11.5882 19.3666 10.3752 18.1536C9.16223 16.9407 8.55574 15.4175 8.55574 13.5842C8.55574 11.7509 9.16223 10.2277 10.3752 9.01477C11.5882 7.8018 13.1113 7.19531 14.9447 7.19531C16.778 7.19531 18.3011 7.8018 19.5141 9.01477C20.7271 10.2277 21.3335 11.7509 21.3335 13.5842C21.3335 15.4175 20.7271 16.9407 19.5141 18.1536C18.3011 19.3666 16.778 19.9731 14.9447 19.9731ZM30.5002 13.5842C30.5002 15.4175 29.8937 16.9407 28.6807 18.1536C27.4678 19.3666 25.9446 19.9731 24.1113 19.9731C23.8057 19.9731 23.4492 19.9476 23.0418 19.8967C22.6344 19.8458 22.278 19.7694 21.9724 19.6675C22.6669 18.9083 23.1969 18.0101 23.5627 16.9731C23.9284 15.936 24.1113 14.8064 24.1113 13.5842C24.1113 12.362 23.9284 11.2509 23.5627 10.2509C23.1969 9.25085 22.6669 8.33419 21.9724 7.50085C22.3057 7.39902 22.6622 7.32263 23.0418 7.27169C23.4215 7.22077 23.778 7.19531 24.1113 7.19531C25.9446 7.19531 27.4678 7.8018 28.6807 9.01477C29.8937 10.2277 30.5002 11.7509 30.5002 13.5842ZM4.38908 30.5564H25.5002V29.1675C25.5002 28.7694 25.3868 28.3898 25.16 28.0286C24.9331 27.6675 24.6484 27.4083 24.3057 27.2509C22.4724 26.4083 20.8474 25.8226 19.4307 25.4939C18.0141 25.1652 16.5187 25.0009 14.9447 25.0009C13.3706 25.0009 11.8706 25.1652 10.4447 25.4939C9.01872 25.8226 7.38908 26.4083 5.55574 27.2509C5.21316 27.4083 4.93306 27.6675 4.71545 28.0286C4.49787 28.3898 4.38908 28.7694 4.38908 29.1675V30.5564ZM14.9447 17.1953C15.9724 17.1953 16.8312 16.8504 17.521 16.1606C18.2108 15.4708 18.5557 14.612 18.5557 13.5842C18.5557 12.5564 18.2108 11.6976 17.521 11.0078C16.8312 10.318 15.9724 9.97306 14.9447 9.97306C13.9169 9.97306 13.0581 10.318 12.3682 11.0078C11.6784 11.6976 11.3335 12.5564 11.3335 13.5842C11.3335 14.612 11.6784 15.4708 12.3682 16.1606C13.0581 16.8504 13.9169 17.1953 14.9447 17.1953Z" fill="#2D3748"/>
</g>
</g>
</svg>
