<svg width="40" height="104" viewBox="0 0 40 104" fill="none" xmlns="http://www.w3.org/2000/svg">
<g id="Group 238134">
<g id="smart_display">
<mask id="mask0_460_1791" style="mask-type:alpha" maskUnits="userSpaceOnUse" x="0" y="64" width="40" height="40">
<rect id="Bounding box" y="64" width="40" height="40" fill="#D9D9D9"/>
</mask>
<g mask="url(#mask0_460_1791)">
<path id="smart_display_2" d="M16.1673 91.1392L27.2784 83.9448L16.1673 76.7503V91.1392ZM6.11173 97.3337C5.36173 97.3337 4.71128 97.0582 4.16036 96.5073C3.60944 95.9564 3.33398 95.3059 3.33398 94.5559V73.4447C3.33398 72.6947 3.60944 72.0443 4.16036 71.4934C4.71128 70.9425 5.36173 70.667 6.11173 70.667H33.8896C34.6396 70.667 35.29 70.9425 35.8409 71.4934C36.3919 72.0443 36.6673 72.6947 36.6673 73.4447V94.5559C36.6673 95.3059 36.3919 95.9564 35.8409 96.5073C35.29 97.0582 34.6396 97.3337 33.8896 97.3337H6.11173ZM6.11173 94.5559H33.8896V73.4447H6.11173V94.5559Z" fill="#2D3748"/>
</g>
</g>
<g id="group">
<mask id="mask1_460_1791" style="mask-type:alpha" maskUnits="userSpaceOnUse" x="0" y="0" width="40" height="40">
<rect id="Bounding box_2" width="40" height="40" fill="#D9D9D9"/>
</mask>
<g mask="url(#mask1_460_1791)">
<path id="group_2" d="M1.61133 33.3332V29.1665C1.61133 28.2036 1.85901 27.3263 2.35437 26.5346C2.84973 25.743 3.52797 25.148 4.38908 24.7499C6.31502 23.8703 8.11595 23.2291 9.79187 22.8263C11.4678 22.4235 13.1854 22.2221 14.9447 22.2221C16.7039 22.2221 18.4169 22.4235 20.0835 22.8263C21.7502 23.2291 23.5465 23.8703 25.4724 24.7499C26.3335 25.148 27.0164 25.743 27.521 26.5346C28.0257 27.3263 28.278 28.2036 28.278 29.1665V33.3332H1.61133ZM31.0557 33.3332V29.0555C31.0557 27.4814 30.646 26.1318 29.8266 25.0068C29.0071 23.8818 27.9076 22.9536 26.528 22.2221C28.278 22.4258 29.9261 22.7383 31.4724 23.1596C33.0187 23.5809 34.3243 24.074 35.3891 24.6388C36.3335 25.1758 37.0696 25.817 37.5974 26.5624C38.1252 27.3078 38.3891 28.1388 38.3891 29.0555V33.3332H31.0557ZM14.9447 19.9721C13.1113 19.9721 11.5882 19.3656 10.3752 18.1527C9.16223 16.9397 8.55574 15.4165 8.55574 13.5832C8.55574 11.7499 9.16223 10.2267 10.3752 9.01379C11.5882 7.80082 13.1113 7.19434 14.9447 7.19434C16.778 7.19434 18.3011 7.80082 19.5141 9.01379C20.7271 10.2267 21.3335 11.7499 21.3335 13.5832C21.3335 15.4165 20.7271 16.9397 19.5141 18.1527C18.3011 19.3656 16.778 19.9721 14.9447 19.9721ZM30.5002 13.5832C30.5002 15.4165 29.8937 16.9397 28.6807 18.1527C27.4678 19.3656 25.9446 19.9721 24.1113 19.9721C23.8057 19.9721 23.4492 19.9466 23.0418 19.8957C22.6344 19.8448 22.278 19.7684 21.9724 19.6665C22.6669 18.9073 23.1969 18.0091 23.5627 16.9721C23.9284 15.9351 24.1113 14.8054 24.1113 13.5832C24.1113 12.361 23.9284 11.2499 23.5627 10.2499C23.1969 9.24988 22.6669 8.33321 21.9724 7.49988C22.3057 7.39804 22.6622 7.32166 23.0418 7.27071C23.4215 7.21979 23.778 7.19434 24.1113 7.19434C25.9446 7.19434 27.4678 7.80082 28.6807 9.01379C29.8937 10.2267 30.5002 11.7499 30.5002 13.5832ZM4.38908 30.5555H25.5002V29.1665C25.5002 28.7684 25.3868 28.3888 25.16 28.0277C24.9331 27.6666 24.6484 27.4073 24.3057 27.2499C22.4724 26.4073 20.8474 25.8216 19.4307 25.4929C18.0141 25.1642 16.5187 24.9999 14.9447 24.9999C13.3706 24.9999 11.8706 25.1642 10.4447 25.4929C9.01872 25.8216 7.38908 26.4073 5.55574 27.2499C5.21316 27.4073 4.93306 27.6666 4.71545 28.0277C4.49787 28.3888 4.38908 28.7684 4.38908 29.1665V30.5555ZM14.9447 17.1943C15.9724 17.1943 16.8312 16.8494 17.521 16.1596C18.2108 15.4698 18.5557 14.611 18.5557 13.5832C18.5557 12.5554 18.2108 11.6966 17.521 11.0068C16.8312 10.317 15.9724 9.97209 14.9447 9.97209C13.9169 9.97209 13.0581 10.317 12.3682 11.0068C11.6784 11.6966 11.3335 12.5554 11.3335 13.5832C11.3335 14.611 11.6784 15.4698 12.3682 16.1596C13.0581 16.8494 13.9169 17.1943 14.9447 17.1943Z" fill="url(#paint0_linear_460_1791)"/>
</g>
</g>
</g>
<defs>
<linearGradient id="paint0_linear_460_1791" x1="1.61133" y1="20.2638" x2="38.3891" y2="20.2638" gradientUnits="userSpaceOnUse">
<stop stop-color="#4FD1C5"/>
<stop offset="1" stop-color="#2FA7FF"/>
</linearGradient>
</defs>
</svg>
